<svg id="svg" version="1.1" width="512" height="512" xmlns="http://www.w3.org/2000/svg" xmlns:xlink="http://www.w3.org/1999/xlink" ><g id="svgg"><path id="path0" d="M183.594 33.671 C 88.126 43.326,21.391 127.947,34.040 223.305 L 34.591 227.457 56.554 205.658 C 68.633 193.668,79.922 183.026,81.641 182.010 C 85.512 179.719,85.676 179.476,86.330 175.066 C 92.397 134.188,130.577 95.269,173.047 86.672 C 179.981 85.268,180.127 85.191,183.586 81.101 C 185.516 78.820,196.164 67.790,207.249 56.592 L 227.403 36.230 218.975 34.839 C 208.762 33.154,193.645 32.655,183.594 33.671 M291.797 33.922 C 277.373 37.214,272.433 40.683,245.885 66.159 C 211.983 98.692,208.022 102.975,203.714 111.748 C 195.169 129.151,194.480 150.069,201.884 167.312 L 204.454 173.296 189.783 187.951 L 175.112 202.607 170.564 200.610 C 149.013 191.145,124.990 192.963,107.283 205.398 C 101.603 209.387,52.780 255.925,47.065 262.798 C 36.864 275.065,31.300 294.662,33.445 310.770 C 39.986 359.899,94.362 383.114,135.034 354.141 C 139.554 350.921,180.096 312.693,188.594 303.638 C 206.671 284.377,211.631 257.982,201.814 233.289 L 199.052 226.343 213.573 211.823 L 228.094 197.302 230.649 198.355 C 256.757 209.112,276.242 207.505,297.894 192.809 C 302.191 189.893,329.382 164.315,350.042 143.756 C 362.308 131.549,368.471 119.524,370.326 104.181 C 375.388 62.305,333.121 24.489,291.797 33.922 M315.072 69.808 C 332.007 78.094,338.182 98.894,328.094 113.672 C 325.079 118.089,277.233 163.934,272.490 166.951 C 267.374 170.205,253.125 173.436,253.125 171.342 C 253.125 171.049,258.170 165.688,264.336 159.428 C 274.497 149.112,275.634 147.678,276.485 144.105 C 279.436 131.709,268.087 120.470,255.719 123.541 C 252.395 124.366,250.619 125.789,240.572 135.676 C 234.312 141.835,228.906 146.875,228.557 146.875 C 227.253 146.875,228.646 134.791,230.421 130.709 C 233.098 124.552,289.532 70.176,295.088 68.400 C 300.844 66.560,309.709 67.184,315.072 69.808 M342.959 194.791 C 330.495 207.125,319.347 217.505,317.621 218.384 C 314.692 219.875,314.490 220.218,313.550 225.311 C 305.666 268.029,269.846 304.363,226.744 313.364 C 222.578 314.234,218.987 315.196,218.765 315.503 C 218.542 315.809,217.010 318.159,215.360 320.725 C 213.614 323.440,204.010 333.772,192.390 345.437 L 172.419 365.483 177.030 366.140 C 185.459 367.341,214.387 366.855,224.144 365.349 C 300.069 353.627,357.148 295.598,366.424 220.703 C 367.852 209.177,367.075 174.783,365.344 172.907 C 365.273 172.830,355.200 182.678,342.959 194.791 M133.029 244.727 C 117.952 259.843,116.406 262.059,116.406 268.559 C 116.406 277.258,122.399 282.814,132.471 283.456 C 139.393 283.896,141.422 282.525,157.023 266.852 C 164.538 259.302,170.999 253.125,171.381 253.125 C 172.947 253.125,171.399 265.377,169.288 269.691 C 167.347 273.657,120.283 320.404,112.225 326.369 C 93.553 340.191,65.832 324.684,67.324 301.250 C 67.962 291.236,69.499 289.258,98.085 261.697 C 128.208 232.655,131.059 230.657,142.570 230.523 L 147.250 230.469 133.029 244.727 M397.266 397.266 L 394.922 399.609 396.770 399.871 C 397.786 400.015,398.958 399.792,399.375 399.375 C 399.792 398.958,400.015 397.786,399.871 396.770 L 399.609 394.922 397.266 397.266 " stroke="none" fill="#000000" fill-rule="evenodd"></path></g></svg>