<?xml version="1.0" encoding="UTF-8" standalone="no"?><svg xmlns="http://www.w3.org/2000/svg" xmlns:xlink="http://www.w3.org/1999/xlink" width="588.6682" height="6.1329in" viewBox="0 0 441.501 441.569" color-interpolation-filters="sRGB" style="fill:none;fill-rule:evenodd;font-size:12px;overflow:visible;stroke-linecap:square;stroke-miterlimit:3"><style>.st1{visibility:visible}.st2{fill:#5b9bd5;fill-opacity:.22;filter:url(#filter_2);stroke:none}.st4,.st6{marker-end:url(#mrkr6-14);stroke:#33d816;stroke-linecap:round;stroke-linejoin:round;stroke-width:18}.st6{marker-end:url(#mrkr6-27);stroke:#ffc000}</style><defs id="Patterns_And_Gradients"><radialGradient id="grad3-7" cx=".5" cy=".5" r=".73"><stop offset=".17" stop-color="#ff5050"/><stop offset=".88" stop-color="#c00000"/></radialGradient><radialGradient id="grad2-41" cx="0" cy="1" r="1.4"><stop offset="0" stop-color="#00fefe"/><stop offset=".9" stop-color="#7030a0"/></radialGradient><radialGradient id="grad2-49" cx="0" cy="1" r="1.4"><stop offset="0" stop-color="#00fefe"/><stop offset=".64" stop-color="#7030a0"/></radialGradient><radialGradient id="grad2-57" cx="0" cy="1" r="1.4"><stop offset="0" stop-color="#00fefe"/><stop offset="1" stop-color="#7030a0"/></radialGradient><radialGradient id="grad2-65" cx="0" cy="1" r="1.4"><stop offset="0" stop-color="#00fefe"/><stop offset=".95" stop-color="#7030a0"/></radialGradient></defs><defs id="Markers"><marker id="mrkr6-14" refX="-2.565" orient="auto" markerUnits="strokeWidth" overflow="visible" style="fill:#33d816;fill-opacity:1;stroke:#33d816;stroke-opacity:1;stroke-width:.87719298245614"><use xlink:href="#lend6" transform="scale(-1.14,-1.14) "/></marker><marker id="mrkr6-27" refX="-2.565" orient="auto" markerUnits="strokeWidth" overflow="visible" style="fill:#ffc000;fill-opacity:1;stroke:#ffc000;stroke-opacity:1;stroke-width:.87719298245614"><use xlink:href="#lend6" transform="scale(-1.14,-1.14) "/></marker><path d="M2 1L0 0l2.0124-1.0064a2.25 2.25 0 010 2.0128" style="stroke:none" id="lend6"/></defs><defs id="Filters"><filter id="filter_2"><feGaussianBlur stdDeviation="2"/></filter></defs><g id="shape1-1" transform="translate(175.5,-175.5)"><g id="shadow1-2" class="st1"><path d="M0 396.21a45.3543 45.3543 0 1190.71 0 45.3543 45.3543 0 11-90.71 0z" class="st2" transform="matrix(1,0,0,1,0.345598,1.97279)"/></g><path d="M0 396.21a45.3543 45.3543 0 1190.71 0 45.3543 45.3543 0 11-90.71 0z" style="fill:url(#grad3-7);stroke:none;stroke-width:.25"/></g><g id="group2-8" transform="translate(68.2641,-68.2641)"><g id="shape3-9" transform="translate(416.268,649.774) rotate(135)"><path d="M0 441.57h100.95" class="st4"/></g></g><g id="group4-15" transform="translate(510.774,69.0047) rotate(90)"><g id="shape5-16" transform="translate(417.028,649.014) rotate(135)"><path d="M0 441.57h102.03" class="st4"/></g></g><g id="group6-21" transform="translate(707.778,266.069) rotate(90)"><g id="shape7-22" transform="translate(415.271,650.771) rotate(135)"><path d="M0 441.57h99.54" class="st6"/></g></g><g id="group8-28" transform="translate(262.88,-262.88)"><g id="shape9-29" transform="translate(417.753,648.289) rotate(135)"><path d="M0 441.57h103.05" class="st6"/></g></g><g id="group10-34" transform="translate(321.776,-148.571)"><g id="shape11-35" transform="translate(-225.222,681.265) rotate(-134.9)"><g id="shadow11-36" class="st1"><path d="M28.35 441.57h69.17a10.8352 10.8352-180 0010.83-10.84 10.8352 10.8352-180 00-10.83-10.83h-47.5a28.3465 28.3465 0 01-28.35-28.35v-47.5a10.8352 10.8352-180 00-10.83-10.83A10.8352 10.8352-180 000 344.05v69.17a28.3465 28.3465-180 0028.35 28.35z" class="st2" transform="matrix(1,0,0,1,-1.64136,-1.14774)"/></g><path d="M28.35 441.57h69.17a10.8352 10.8352-180 0010.83-10.84 10.8352 10.8352-180 00-10.83-10.83h-47.5a28.3465 28.3465 0 01-28.35-28.35v-47.5a10.8352 10.8352-180 00-10.83-10.83A10.8352 10.8352-180 000 344.05v69.17a28.3465 28.3465-180 0028.35 28.35z" style="fill:url(#grad2-41);stroke:none;stroke-width:.25"/></g></g><g id="group12-42" transform="translate(590.295,320.645) rotate(90)"><g id="shape13-43" transform="translate(-225.222,681.265) rotate(-134.9)"><g id="shadow13-44" class="st1"><path d="M28.35 441.57h69.17a10.8352 10.8352-180 0010.83-10.84 10.8352 10.8352-180 00-10.83-10.83h-47.5a28.3465 28.3465 0 01-28.35-28.35v-47.5a10.8352 10.8352-180 00-10.83-10.83A10.8352 10.8352-180 000 344.05v69.17a28.3465 28.3465-180 0028.35 28.35z" class="st2" transform="matrix(1,0,0,1,-1.14774,1.64136)"/></g><path d="M28.35 441.57h69.17a10.8352 10.8352-180 0010.83-10.84 10.8352 10.8352-180 00-10.83-10.83h-47.5a28.3465 28.3465 0 01-28.35-28.35v-47.5a10.8352 10.8352-180 00-10.83-10.83A10.8352 10.8352-180 000 344.05v69.17a28.3465 28.3465-180 0028.35 28.35z" style="fill:url(#grad2-49);stroke:none;stroke-width:.25"/></g></g><g id="group14-50" transform="translate(-148.586,119.725) rotate(-90)"><g id="shape15-51" transform="translate(-225.222,681.265) rotate(-134.9)"><g id="shadow15-52" class="st1"><path d="M28.35 441.57h69.17a10.8352 10.8352-180 0010.83-10.84 10.8352 10.8352-180 00-10.83-10.83h-47.5a28.3465 28.3465 0 01-28.35-28.35v-47.5a10.8352 10.8352-180 00-10.83-10.83A10.8352 10.8352-180 000 344.05v69.17a28.3465 28.3465-180 0028.35 28.35z" class="st2" transform="matrix(1,0,0,1,1.14774,-1.64136)"/></g><path d="M28.35 441.57h69.17a10.8352 10.8352-180 0010.83-10.84 10.8352 10.8352-180 00-10.83-10.83h-47.5a28.3465 28.3465 0 01-28.35-28.35v-47.5a10.8352 10.8352-180 00-10.83-10.83A10.8352 10.8352-180 000 344.05v69.17a28.3465 28.3465-180 0028.35 28.35z" style="fill:url(#grad2-57);stroke:none;stroke-width:.25"/></g></g><g id="group16-58" transform="translate(120.215,590.369) rotate(180)"><g id="shape17-59" transform="translate(-225.222,681.265) rotate(-134.9)"><g id="shadow17-60" class="st1"><path d="M28.35 441.57h69.17a10.8352 10.8352-180 0010.83-10.84 10.8352 10.8352-180 00-10.83-10.83h-47.5a28.3465 28.3465 0 01-28.35-28.35v-47.5a10.8352 10.8352-180 00-10.83-10.83A10.8352 10.8352-180 000 344.05v69.17a28.3465 28.3465-180 0028.35 28.35z" class="st2" transform="matrix(1,0,0,1,1.64136,1.14774)"/></g><path d="M28.35 441.57h69.17a10.8352 10.8352-180 0010.83-10.84 10.8352 10.8352-180 00-10.83-10.83h-47.5a28.3465 28.3465 0 01-28.35-28.35v-47.5a10.8352 10.8352-180 00-10.83-10.83A10.8352 10.8352-180 000 344.05v69.17a28.3465 28.3465-180 0028.35 28.35z" style="fill:url(#grad2-65);stroke:none;stroke-width:.25"/></g></g></svg>